<?xml version="1.0" encoding="utf-8"?>
<!-- Generator: Adobe Illustrator 17.0.2, SVG Export Plug-In . SVG Version: 6.00 Build 0)  -->
<!DOCTYPE svg PUBLIC "-//W3C//DTD SVG 1.1//EN" "http://www.w3.org/Graphics/SVG/1.1/DTD/svg11.dtd">
<svg version="1.1" id="Layer_1" xmlns="http://www.w3.org/2000/svg" xmlns:xlink="http://www.w3.org/1999/xlink" x="0px" y="0px"
	 width="94px" height="106px" viewBox="0 0 94 106" enable-background="new 0 0 94 106" xml:space="preserve">
<g>
	<path fill="#FFFFFF" d="M71.035,74.322l-5.213-6.275c2.473-1.079,4.815-2.466,6.963-4.147c0.218,0.008,0.433,0.012,0.647,0.012
		c11.396,0,20.668-9.189,20.668-20.487c0-8.272-4.922-15.584-12.447-18.801C76.228,13.854,65.148,7,52.883,7
		c-8.991,0-17.402,3.65-23.474,10.1c-1.018-0.12-2.032-0.181-3.034-0.181C11.832,16.919,0,28.648,0,43.066
		c0,14.417,11.832,26.147,26.376,26.147c3.802,0,7.561-0.827,11.016-2.408c0.146,0.08,0.298,0.148,0.445,0.225l24.88,29.947
		l-7.218-22.655H71.035z M40.108,57.806L37.691,56.2l-2.496,1.483c-2.682,1.593-5.732,2.436-8.82,2.436
		c-9.485,0-17.202-7.651-17.202-17.053c0-9.404,7.716-17.052,17.202-17.052c1.238,0,2.52,0.147,3.809,0.435l2.829,0.635l1.792-2.262
		c4.395-5.545,10.983-8.727,18.078-8.727c9.253,0,17.562,5.457,21.17,13.903l0.825,1.932l2.018,0.632
		c4.802,1.503,8.028,5.868,8.028,10.863c0,6.282-5.156,11.393-11.493,11.393c-0.442,0-0.93-0.038-1.534-0.118L69.8,54.424
		l-1.575,1.401c-2.496,2.221-5.426,3.834-8.572,4.797L45.599,43.704l5.7,17.889C47.293,61.321,43.453,60.028,40.108,57.806z
		 M71.686,81.432l-0.017,0.009c-0.758-1.477-2.29-2.499-4.076-2.499c-2.535,0-4.59,2.037-4.59,4.55c0,0.742,0.196,1.432,0.514,2.051
		L63.5,85.552l4.59,8.963l0.097-0.049c0.798,1.343,2.256,2.255,3.943,2.255c2.535,0,4.59-2.037,4.59-4.55
		c0-1.02-0.351-1.952-0.923-2.711L71.686,81.432z M43.149,83.638l-4.59-8.963l-0.017,0.009c-0.759-1.477-2.29-2.499-4.076-2.499
		c-2.535,0-4.59,2.037-4.59,4.55c0,0.742,0.196,1.432,0.514,2.051l-0.017,0.009l4.59,8.962l0.017-0.009
		c0.759,1.477,2.29,2.499,4.076,2.499c2.535,0,4.59-2.037,4.59-4.55c0-0.742-0.196-1.432-0.514-2.051L43.149,83.638z M88.394,81.363
		l-4.59-8.963l-0.017,0.009c-0.759-1.477-2.29-2.499-4.076-2.499c-2.535,0-4.59,2.037-4.59,4.55c0,0.742,0.196,1.432,0.514,2.051
		l-0.017,0.009l4.59,8.963l0.017-0.009c0.759,1.477,2.29,2.499,4.076,2.499c2.535,0,4.59-2.037,4.59-4.55
		c0-0.742-0.196-1.432-0.514-2.051L88.394,81.363z"/>
</g>
</svg>
