<?xml version="1.0" encoding="utf-8"?>
<!-- Generator: Adobe Illustrator 17.0.2, SVG Export Plug-In . SVG Version: 6.00 Build 0)  -->
<!DOCTYPE svg PUBLIC "-//W3C//DTD SVG 1.1//EN" "http://www.w3.org/Graphics/SVG/1.1/DTD/svg11.dtd">
<svg version="1.1" id="Layer_1" xmlns="http://www.w3.org/2000/svg" xmlns:xlink="http://www.w3.org/1999/xlink" x="0px" y="0px"
	 width="94px" height="106px" viewBox="0 0 94 106" enable-background="new 0 0 94 106" xml:space="preserve">
<g>
	<g>
		<path fill="#FFFFFF" d="M86.588,80.064L73.344,55.511c10.671-0.467,19.213-9.224,19.213-19.954
			c0-8.075-4.788-15.213-12.106-18.352C75.177,6.691,64.4,0,52.472,0c-8.744,0-16.924,3.563-22.829,9.859
			c-0.99-0.117-1.976-0.177-2.95-0.177C12.547,9.683,1.04,21.132,1.04,35.206c0,14.073,11.507,25.524,25.652,25.524
			c1.169,0,2.333-0.09,3.486-0.249l12.829,23.784l0.018-0.009c0.754,1.393,2.215,2.351,3.916,2.351c2.465,0,4.464-1.989,4.464-4.442
			c0-0.76-0.21-1.465-0.549-2.091l0.018-0.009L39.809,59.55c2.766,1.222,5.691,2.047,8.705,2.426l16.815,31.172l0.018-0.009
			c0.753,1.393,2.215,2.351,3.916,2.351c2.466,0,4.464-1.989,4.464-4.442c0-0.76-0.21-1.465-0.548-2.091l0.018-0.009l-14.737-27.32
			c2.375-0.46,4.686-1.179,6.883-2.167l13.38,24.805l0.018-0.009c0.753,1.393,2.215,2.351,3.916,2.351
			c2.465,0,4.464-1.989,4.464-4.442c0-0.76-0.21-1.465-0.549-2.091L86.588,80.064z M37.697,48.027l-2.427,1.448
			c-2.608,1.555-5.575,2.378-8.578,2.378c-9.225,0-16.729-7.468-16.729-16.647c0-9.179,7.504-16.646,16.729-16.646
			c1.204,0,2.451,0.143,3.704,0.425l2.751,0.62l1.743-2.208c4.274-5.413,10.682-8.519,17.581-8.519
			c8.999,0,17.081,5.327,20.589,13.571l0.803,1.886l1.962,0.617c4.67,1.467,7.808,5.728,7.808,10.604
			c0,6.132-5.014,11.122-11.178,11.122c-0.429,0-0.904-0.037-1.491-0.115l-2.04-0.271l-1.532,1.367
			c-4.105,3.667-9.404,5.687-14.921,5.687c-4.448,0-8.743-1.298-12.424-3.752L37.697,48.027z"/>
	</g>
</g>
</svg>
