<?xml version="1.0" encoding="utf-8"?>
<!-- Generator: Adobe Illustrator 17.0.2, SVG Export Plug-In . SVG Version: 6.00 Build 0)  -->
<!DOCTYPE svg PUBLIC "-//W3C//DTD SVG 1.1//EN" "http://www.w3.org/Graphics/SVG/1.1/DTD/svg11.dtd">
<svg version="1.1" id="Layer_1" xmlns="http://www.w3.org/2000/svg" xmlns:xlink="http://www.w3.org/1999/xlink" x="0px" y="0px"
	 width="94px" height="106px" viewBox="0 0 94 106" enable-background="new 0 0 94 106" xml:space="preserve">
<g>
	<g>
		<path fill="#FFFFFF" d="M46.999,29.378c-13.046,0-23.621,10.575-23.621,23.622c0,13.048,10.575,23.623,23.621,23.623
			c13.046,0,23.622-10.575,23.622-23.623C70.622,39.953,60.045,29.378,46.999,29.378z M46.988,21.917
			c0.002,0,0.004,0.001,0.006,0.001h0.012c0.003,0,0.004-0.001,0.007-0.001c2.132-0.007,4.96-1.349,4.96-4.973
			c0-5.265-4.471-9.789-4.955-9.939C47.014,7.003,47.01,7,47.006,7C47.005,7,47.002,7.001,47,7.001C46.998,7.001,46.995,7,46.994,7
			c-0.004,0-0.008,0.003-0.012,0.006c-0.484,0.149-4.955,4.673-4.955,9.939C42.027,20.568,44.855,21.91,46.988,21.917z
			 M47.012,84.083c-0.002,0-0.004-0.001-0.006-0.001h-0.012c-0.003,0-0.004,0.001-0.007,0.001c-2.132,0.007-4.96,1.349-4.96,4.973
			c0,5.265,4.471,9.789,4.955,9.939C46.986,98.997,46.99,99,46.994,99c0.001,0,0.004-0.001,0.006-0.001
			c0.002,0,0.005,0.001,0.006,0.001c0.004,0,0.008-0.004,0.011-0.006c0.485-0.149,4.955-4.673,4.955-9.939
			C51.973,85.432,49.145,84.09,47.012,84.083z M93,52.993c0-0.004-0.004-0.007-0.006-0.011c-0.149-0.484-4.673-4.955-9.939-4.955
			c-3.624,0-4.966,2.828-4.973,4.961c0,0.001-0.001,0.003-0.001,0.005v0.012c0,0.004,0.001,0.005,0.001,0.007
			c0.007,2.132,1.349,4.961,4.973,4.961c5.266,0,9.789-4.471,9.939-4.956C92.997,53.014,93,53.01,93,53.005
			c0,0-0.001-0.004-0.001-0.005C92.999,52.998,93,52.996,93,52.993z M15.917,53.013c0-0.002,0.001-0.005,0.001-0.007v-0.012
			c0-0.002-0.001-0.004-0.001-0.006c-0.007-2.132-1.349-4.96-4.973-4.96c-5.266,0-9.789,4.47-9.939,4.955
			C1.003,52.986,1,52.99,1,52.993C1,52.996,1.001,52.998,1.001,53C1.001,53.002,1,53.005,1,53.005c0,0.005,0.004,0.008,0.006,0.012
			c0.149,0.485,4.673,4.956,9.939,4.956C14.568,57.973,15.91,55.145,15.917,53.013z M68.973,31.018
			c0.002,0.001,0.003,0.002,0.005,0.004c0.001,0.002,0.002,0.003,0.004,0.005c0.002,0.001,0.004,0.001,0.005,0.004
			c1.513,1.502,4.461,2.553,7.024-0.01c3.724-3.722,3.761-10.083,3.524-10.531c-0.001-0.004-0.001-0.01-0.004-0.012
			c-0.001-0.001-0.004-0.002-0.005-0.004c-0.001-0.001-0.003-0.005-0.004-0.005c-0.003-0.004-0.008-0.004-0.012-0.004
			c-0.448-0.238-6.809-0.2-10.532,3.523c-2.562,2.563-1.512,5.511-0.009,7.024C68.972,31.013,68.972,31.016,68.973,31.018z
			 M25.027,74.982c-0.002-0.001-0.004-0.002-0.005-0.003c-0.001-0.003-0.003-0.004-0.004-0.005
			c-0.002-0.003-0.004-0.003-0.005-0.004c-1.513-1.502-4.461-2.553-7.024,0.008c-3.724,3.724-3.761,10.084-3.524,10.532
			c0,0.004,0,0.01,0.004,0.012c0.001,0.001,0.004,0.003,0.005,0.004c0.001,0.001,0.002,0.005,0.004,0.005
			c0.003,0.004,0.008,0.004,0.012,0.004c0.448,0.238,6.809,0.2,10.532-3.523c2.562-2.563,1.512-5.511,0.008-7.024
			C25.028,74.986,25.028,74.984,25.027,74.982z M68.987,74.971c0,0-0.002,0-0.004,0.003c-0.002,0.001-0.003,0.003-0.005,0.005
			c-0.002,0.002-0.002,0.002-0.004,0.003c-0.003,0.003-0.003,0.004-0.004,0.006c-1.502,1.513-2.554,4.462,0.009,7.025
			c3.724,3.722,10.084,3.76,10.532,3.522c0.004,0,0.009,0,0.013-0.004c0,0,0.002-0.003,0.002-0.005
			c0.002-0.001,0.004-0.002,0.006-0.004c0.002-0.002,0.002-0.009,0.004-0.012c0.237-0.448,0.199-6.807-3.524-10.531
			C73.449,72.417,70.501,73.468,68.987,74.971z M25.012,31.03c0.002-0.003,0.004-0.003,0.006-0.005c0.001,0,0.003-0.002,0.004-0.002
			c0.001-0.003,0.003-0.004,0.005-0.006c0.002-0.001,0.002-0.004,0.004-0.005c1.502-1.513,2.553-4.461-0.01-7.024
			c-3.723-3.722-10.083-3.761-10.531-3.523c-0.004,0-0.009,0-0.012,0.003c-0.001,0.002-0.002,0.005-0.004,0.006
			c-0.001,0.001-0.004,0.004-0.004,0.004c-0.004,0.002-0.004,0.008-0.004,0.012c-0.237,0.448-0.2,6.809,3.523,10.532
			C20.55,33.585,23.499,32.532,25.012,31.03z"/>
	</g>
</g>
</svg>
