<?xml version="1.0" encoding="utf-8"?>
<!-- Generator: Adobe Illustrator 17.0.2, SVG Export Plug-In . SVG Version: 6.00 Build 0)  -->
<!DOCTYPE svg PUBLIC "-//W3C//DTD SVG 1.1//EN" "http://www.w3.org/Graphics/SVG/1.1/DTD/svg11.dtd">
<svg version="1.1" id="Layer_1" xmlns="http://www.w3.org/2000/svg" xmlns:xlink="http://www.w3.org/1999/xlink" x="0px" y="0px"
	 width="94px" height="106px" viewBox="0 0 94 106" enable-background="new 0 0 94 106" xml:space="preserve">
<g>
	<g>
		<path fill="#4E6179" d="M82.748,21.095C77.251,10.037,66.022,3,53.593,3c-9.113,0-17.636,3.748-23.789,10.369
			c-1.031-0.123-2.059-0.186-3.074-0.186C11.991,13.183,0,25.224,0,40.026c0,13.65,10.201,24.945,23.347,26.621
			c0.028,0.538,0.296,1.056,0.778,1.375l1.185,0.782l-1.185,0.782c-0.804,0.531-1.028,1.618-0.499,2.426
			c0.528,0.808,1.61,1.033,2.416,0.502l0.698-0.461v0.84c0,0.967,0.781,1.752,1.744,1.752s1.744-0.785,1.744-1.752v-0.84l0.7,0.462
			c0.804,0.532,1.886,0.306,2.415-0.502c0.529-0.809,0.305-1.895-0.5-2.427l-1.183-0.781l1.183-0.781
			c0.686-0.453,0.945-1.308,0.68-2.051c1.494-0.398,2.957-0.92,4.369-1.575c4.794,2.654,10.168,4.044,15.701,4.044
			c3.553,0,7.043-0.585,10.349-1.697c0.054,0.502,0.315,0.979,0.768,1.278l1.185,0.782l-1.185,0.782
			c-0.804,0.531-1.028,1.618-0.499,2.426c0.528,0.808,1.61,1.033,2.416,0.502l0.698-0.461v0.84c0,0.967,0.781,1.752,1.744,1.752
			s1.744-0.785,1.744-1.752v-0.841l0.7,0.462c0.804,0.532,1.886,0.306,2.414-0.502c0.529-0.809,0.306-1.895-0.5-2.427l-1.183-0.781
			l1.183-0.781c0.805-0.531,1.029-1.617,0.5-2.426c-0.528-0.807-1.61-1.033-2.414-0.502l-0.7,0.462v-0.84
			c0-0.381-0.124-0.731-0.33-1.018c1.133-0.691,2.228-1.451,3.276-2.283c0.221,0.008,0.439,0.013,0.656,0.013
			c11.547,0,20.944-9.434,20.944-21.033C95.362,31.904,90.374,24.396,82.748,21.095z M67.326,65.556l-0.149-0.098
			c0.05-0.023,0.099-0.047,0.149-0.07V65.556z M74.417,52.093c-0.449,0-0.943-0.039-1.555-0.121l-2.126-0.285l-1.596,1.438
			c-4.279,3.857-9.8,5.981-15.548,5.981c-4.636,0-9.112-1.365-12.947-3.946l-2.45-1.649l-2.529,1.523
			c-2.718,1.636-5.808,2.501-8.938,2.501c-9.612,0-17.432-7.854-17.432-17.507c0-9.654,7.82-17.506,17.432-17.506
			c1.255,0,2.554,0.151,3.86,0.447l2.867,0.652l1.816-2.322c4.454-5.693,11.131-8.959,18.321-8.959
			c9.376,0,17.796,5.602,21.453,14.273l0.836,1.983l2.045,0.649c4.866,1.543,8.136,6.024,8.136,11.153
			C86.064,46.845,80.839,52.093,74.417,52.093z M33.344,84.211c-0.528-0.807-1.61-1.033-2.415-0.502l-0.7,0.462v-0.84
			c0-0.967-0.781-1.752-1.744-1.752s-1.744,0.785-1.744,1.752v0.84l-0.698-0.461c-0.805-0.532-1.888-0.307-2.416,0.501
			c-0.529,0.809-0.306,1.894,0.499,2.426l1.185,0.782l-1.185,0.782c-0.804,0.532-1.028,1.618-0.499,2.426
			c0.528,0.807,1.61,1.033,2.416,0.502l0.698-0.461v0.84c0,0.967,0.781,1.752,1.744,1.752s1.744-0.785,1.744-1.752v-0.84l0.7,0.462
			c0.804,0.532,1.886,0.306,2.415-0.502c0.529-0.81,0.305-1.895-0.5-2.427l-1.183-0.781l1.183-0.781
			C33.649,86.105,33.873,85.019,33.344,84.211z M73.929,84.211c-0.528-0.807-1.61-1.033-2.414-0.502l-0.7,0.462v-0.84
			c0-0.967-0.781-1.752-1.744-1.752s-1.744,0.785-1.744,1.752v0.84l-0.698-0.461c-0.805-0.532-1.888-0.307-2.416,0.501
			c-0.529,0.809-0.305,1.894,0.499,2.426l1.185,0.782l-1.185,0.782c-0.804,0.532-1.028,1.618-0.499,2.426
			c0.528,0.807,1.61,1.033,2.416,0.502l0.698-0.461v0.84c0,0.967,0.781,1.752,1.744,1.752s1.744-0.785,1.744-1.752v-0.841l0.7,0.462
			c0.804,0.532,1.886,0.306,2.414-0.502c0.529-0.81,0.306-1.895-0.5-2.427l-1.183-0.781l1.183-0.781
			C74.234,86.105,74.458,85.019,73.929,84.211z M52.907,93.411c-0.528-0.807-1.61-1.033-2.414-0.502l-0.7,0.462v-0.84
			c0-0.967-0.781-1.752-1.744-1.752s-1.744,0.785-1.744,1.752v0.84l-0.699-0.461c-0.805-0.531-1.887-0.307-2.416,0.501
			c-0.529,0.809-0.305,1.894,0.499,2.426l1.185,0.782l-1.185,0.782c-0.804,0.531-1.028,1.618-0.499,2.426
			c0.528,0.807,1.61,1.033,2.416,0.502l0.699-0.461v0.84c0,0.967,0.781,1.752,1.744,1.752s1.744-0.785,1.744-1.752v-0.84l0.7,0.462
			c0.804,0.531,1.886,0.306,2.414-0.502c0.529-0.81,0.306-1.895-0.5-2.427l-1.183-0.781l1.183-0.781
			C53.213,95.305,53.437,94.219,52.907,93.411z M53.084,74.797c-0.528-0.807-1.61-1.033-2.414-0.502l-0.7,0.462v-0.84
			c0-0.967-0.781-1.752-1.744-1.752s-1.744,0.785-1.744,1.752v0.84l-0.698-0.461c-0.805-0.532-1.887-0.307-2.416,0.5
			c-0.529,0.809-0.305,1.894,0.499,2.426l1.185,0.782l-1.185,0.782c-0.804,0.531-1.028,1.618-0.499,2.426
			c0.528,0.807,1.61,1.033,2.416,0.502l0.698-0.461v0.84c0,0.967,0.781,1.752,1.744,1.752s1.744-0.785,1.744-1.752v-0.841l0.7,0.462
			c0.804,0.531,1.886,0.306,2.414-0.502c0.529-0.81,0.306-1.896-0.5-2.427l-1.183-0.781l1.183-0.781
			C53.389,76.692,53.613,75.606,53.084,74.797z"/>
	</g>
</g>
</svg>
