<?xml version="1.0" encoding="utf-8"?>
<!-- Generator: Adobe Illustrator 17.0.2, SVG Export Plug-In . SVG Version: 6.00 Build 0)  -->
<!DOCTYPE svg PUBLIC "-//W3C//DTD SVG 1.1//EN" "http://www.w3.org/Graphics/SVG/1.1/DTD/svg11.dtd">
<svg version="1.1" id="Layer_1" xmlns="http://www.w3.org/2000/svg" xmlns:xlink="http://www.w3.org/1999/xlink" x="0px" y="0px"
	 width="94px" height="106px" viewBox="0 0 94 106" enable-background="new 0 0 94 106" xml:space="preserve">
<g>
	<g>
		<path fill="#FFFFFF" d="M81.131,18.701C75.742,7.884,64.732,1,52.546,1c-8.934,0-17.292,3.666-23.325,10.144
			c-1.011-0.12-2.018-0.182-3.013-0.182C11.757,10.962,0,22.741,0,37.222c0,13.301,9.923,24.316,22.739,26.023v0.68
			c0,2.525,2.042,4.57,4.561,4.57c2.519,0,4.561-2.045,4.561-4.57v-1.07c1.817-0.406,3.591-1.005,5.292-1.792
			c1.96,1.083,4.022,1.937,6.15,2.58c-0.011,0.13-0.039,0.255-0.039,0.389v9c0,2.525,2.042,4.57,4.561,4.57
			c2.519,0,4.561-2.045,4.561-4.57v-8.018c0.054,0,0.107,0.005,0.16,0.005c3.879,0,7.68-0.709,11.242-2.051v0.993
			c0,2.525,2.042,4.57,4.561,4.57c2.519,0,4.561-2.045,4.561-4.57v-5.803c0.018,0,0.036,0.001,0.053,0.001
			c11.323,0,20.537-9.229,20.537-20.575C93.5,29.276,88.608,21.931,81.131,18.701z M72.963,49.026c-0.44,0-0.923-0.038-1.524-0.118
			l-2.084-0.279l-1.565,1.407c-4.195,3.773-9.608,5.851-15.244,5.851c-4.544,0-8.934-1.336-12.693-3.86l-2.403-1.613l-2.479,1.49
			c-2.666,1.6-5.696,2.447-8.763,2.447c-9.425,0-17.093-7.684-17.093-17.127c0-9.444,7.668-17.126,17.093-17.126
			c1.229,0,2.503,0.147,3.784,0.437l2.81,0.638l1.782-2.271c4.366-5.569,10.913-8.765,17.962-8.765
			c9.194,0,17.45,5.48,21.035,13.963l0.82,1.94l2.004,0.635c4.773,1.509,7.977,5.893,7.977,10.91
			C84.383,43.892,79.26,49.026,72.963,49.026z M47.825,84.599c-2.519,0-4.561,2.046-4.561,4.57v9c0,2.525,2.042,4.57,4.561,4.57
			c2.519,0,4.561-2.045,4.561-4.57v-9C52.386,86.645,50.343,84.599,47.825,84.599z M27.3,75.349c-2.519,0-4.561,2.046-4.561,4.57v9
			c0,2.525,2.042,4.57,4.561,4.57c2.519,0,4.561-2.045,4.561-4.57v-9C31.861,77.395,29.819,75.349,27.3,75.349z M68.349,75.492
			c-2.519,0-4.561,2.046-4.561,4.57v9c0,2.525,2.042,4.57,4.561,4.57c2.519,0,4.561-2.045,4.561-4.57v-9
			C72.91,77.538,70.868,75.492,68.349,75.492z"/>
	</g>
</g>
</svg>
