<?xml version="1.0" encoding="utf-8"?>
<!-- Generator: Adobe Illustrator 17.0.2, SVG Export Plug-In . SVG Version: 6.00 Build 0)  -->
<!DOCTYPE svg PUBLIC "-//W3C//DTD SVG 1.1//EN" "http://www.w3.org/Graphics/SVG/1.1/DTD/svg11.dtd">
<svg version="1.1" id="Layer_1" xmlns="http://www.w3.org/2000/svg" xmlns:xlink="http://www.w3.org/1999/xlink" x="0px" y="0px"
	 width="94px" height="106px" viewBox="0 0 94 106" enable-background="new 0 0 94 106" xml:space="preserve">
<g>
	<g>
		<path fill="#3698D8" d="M37.151,12.1h0.02c1.742-0.006,4.054-1.095,4.054-4.033c0-4.272-3.654-7.94-4.05-8.061
			C37.173,0.004,37.17,0,37.166,0c-0.001,0-0.004,0.002-0.005,0.002C37.16,0.002,37.157,0,37.156,0
			c-0.003,0-0.007,0.004-0.009,0.006c-0.396,0.12-4.05,3.789-4.05,8.061C33.097,11.005,35.408,12.094,37.151,12.1z M12.192,37.463
			c0-0.002,0.001-0.004,0.001-0.006c0-0.002,0-0.004,0-0.004v-0.006c0-0.002-0.001-0.004-0.001-0.006
			c-0.006-1.729-1.103-4.021-4.064-4.021c-4.304,0-8.001,3.626-8.123,4.018C0.003,37.442,0,37.444,0,37.448
			c0,0.002,0.001,0.004,0.001,0.006L0,37.457c0,0.004,0.003,0.006,0.005,0.01c0.122,0.392,3.819,4.02,8.123,4.02
			C11.09,41.487,12.186,39.192,12.192,37.463z M55.556,19.625c0.001,0,0.003,0.002,0.004,0.002c0.001,0.002,0.002,0.004,0.003,0.004
			c0.002,0.002,0.004,0.002,0.005,0.004c1.236,1.217,3.647,2.07,5.74-0.008c3.043-3.019,3.074-8.179,2.88-8.541
			c0-0.004,0-0.008-0.003-0.01c-0.001-0.002-0.003-0.002-0.004-0.004c-0.001,0-0.002-0.004-0.003-0.004
			c-0.002-0.002-0.006-0.002-0.01-0.002c-0.366-0.193-5.565-0.164-8.607,2.858c-2.095,2.078-1.236,4.468-0.008,5.695
			C55.555,19.621,55.555,19.623,55.556,19.625z M19.626,19.635c0.002-0.002,0.003-0.002,0.005-0.004
			c0.001,0,0.002-0.002,0.003-0.002c0.001-0.002,0.003-0.004,0.004-0.006c0.002,0,0.002-0.002,0.003-0.004
			c1.228-1.227,2.087-3.618-0.008-5.695c-3.043-3.019-8.241-3.051-8.607-2.858c-0.004,0-0.008,0-0.01,0.002
			c-0.001,0.002-0.002,0.004-0.003,0.004c-0.001,0.002-0.004,0.004-0.004,0.004c-0.003,0.002-0.003,0.006-0.004,0.01
			c-0.193,0.362-0.163,5.522,2.88,8.541C15.979,21.706,18.389,20.852,19.626,19.635z M87.947,82.095
			c-12.85,6.033-21.331,1.215-29.533-3.444c-5.785-3.287-11.768-6.685-18.2-4.42c-0.041,0.014-0.075,0.038-0.115,0.054l-0.015-0.047
			c-1.979,0.897-4.12,1.373-6.286,1.373c-8.399,0-15.231-6.781-15.231-15.116c0-8.335,6.833-15.115,15.231-15.115
			c1.096,0,2.231,0.13,3.373,0.386l2.505,0.563l1.587-2.005c3.891-4.916,9.726-7.736,16.007-7.736
			c8.192,0,15.55,4.837,18.744,12.323l0.731,1.712l1.787,0.56c4.251,1.332,7.109,5.201,7.109,9.629c0,5.132-3.88,9.372-8.881,10.007
			c-0.124-0.011-0.243-0.037-0.369-0.037c-4.331,0-8.515-2.456-12.946-5.055c-5.089-2.986-10.858-6.372-17.792-6.372
			c-2.245,0-4.064,1.806-4.064,4.033c0,2.227,1.82,4.033,4.064,4.033c4.711,0,9.056,2.549,13.654,5.248
			c5.177,3.038,10.53,6.179,17.083,6.179c0.101,0,0.196-0.022,0.296-0.03v0.092c9.52-0.629,17.078-8.494,17.078-18.098
			c0-7.332-4.358-13.814-11.021-16.665c-4.803-9.547-14.615-15.623-25.474-15.623c-0.854,0-1.7,0.045-2.539,0.118
			c-3.214-6.146-9.674-10.35-17.134-10.35c-10.663,0-19.306,8.576-19.306,19.158c0,1.777,0.256,3.491,0.718,5.12
			c-5.225,4.254-8.565,10.708-8.565,17.922c0,12.779,10.477,23.176,23.355,23.176c3.004,0,5.976-0.587,8.755-1.708l-0.011-0.035
			c0.13-0.032,0.262-0.05,0.391-0.095c2.776-0.979,6.155,0.815,11.443,3.819c5.745,3.264,12.908,7.335,22.01,7.335
			c4.514-0.001,9.507-1.002,15.038-3.6c2.028-0.952,2.896-3.357,1.935-5.37C92.399,82.001,89.976,81.141,87.947,82.095z
			 M65.834,98.654c-1.105-0.76-2.148-1.497-3.146-2.202c-7.724-5.457-13.824-9.769-25.717-8.142
			c-2.224,0.304-3.778,2.34-3.472,4.546c0.305,2.206,2.352,3.743,4.58,3.445c8.697-1.192,12.674,1.622,19.895,6.722
			c1.025,0.724,2.096,1.48,3.232,2.261c0.706,0.485,1.512,0.718,2.311,0.718c1.288,0,2.555-0.607,3.344-1.737
			C68.139,102.435,67.68,99.922,65.834,98.654z"/>
	</g>
</g>
</svg>
