<?xml version="1.0" encoding="utf-8"?>
<!-- Generator: Adobe Illustrator 17.0.0, SVG Export Plug-In . SVG Version: 6.00 Build 0)  -->
<!DOCTYPE svg PUBLIC "-//W3C//DTD SVG 1.1//EN" "http://www.w3.org/Graphics/SVG/1.1/DTD/svg11.dtd">
<svg version="1.1" id="Layer_1" xmlns="http://www.w3.org/2000/svg" xmlns:xlink="http://www.w3.org/1999/xlink" x="0px" y="0px"
	 width="360.156px" height="179.472px" viewBox="0 0 360.156 179.472" enable-background="new 0 0 360.156 179.472"
	 xml:space="preserve">
<g>
	<g>
		<path fill="#134488" d="M256.238,2.211c0,0,11.116-0.371,27.792-0.929c8.339-0.278,18.065-0.604,28.486-0.952
			c5.209-0.068,10.587-0.645,16.114-0.094c2.743,0.346,5.508,0.995,8.048,2.265c2.543,1.251,4.776,3.175,6.424,5.502
			c3.256,4.716,4.5,10.42,5.546,15.725c1.125,5.359,2.231,10.632,3.301,15.734c1.07,5.102,2.105,10.034,3.087,14.711
			c0.993,4.675,1.595,9.165,2.329,13.275c2.76,16.477,4.601,27.459,4.601,27.459l-1.851,0.265c0,0-1.719-10.973-4.3-27.435
			c-0.692-4.11-1.242-8.593-2.186-13.277c-0.931-4.688-1.913-9.63-2.931-14.746c-1.016-5.113-2.067-10.397-3.134-15.766
			c-0.995-5.369-2.163-10.854-5.226-15.409c-3.053-4.599-8.46-6.932-13.796-7.549c-5.384-0.6-10.8-0.088-16.007-0.07
			c-10.425,0.239-20.155,0.461-28.494,0.653C267.359,1.955,256.238,2.211,256.238,2.211z"/>
		<path fill="#134488" d="M92.972,169.952c0,0-5.06,1.159-13.915,3.183c-4.432,0.991-9.814,2.19-15.988,3.567
			c-3.093,0.662-6.383,1.368-9.85,2.111c-3.546,0.732-7.596,0.95-11.633,0.152c-8.108-1.418-16.152-7.451-20.021-16.167
			c-2.035-4.321-2.735-9.259-3.476-13.753c-0.775-4.616-1.567-9.334-2.374-14.129c-1.58-9.598-3.343-19.496-4.895-29.589
			C9.24,95.238,7.074,85.121,5.214,74.931c-0.922-5.096-1.845-10.19-2.765-15.264c-0.457-2.538-0.914-5.072-1.368-7.598
			l-0.709-3.941c-0.111-1.319-0.369-2.438-0.35-3.928c-0.228-5.587,1.275-11.084,4.357-15.567c3.032-4.494,7.545-7.767,12.365-9.532
			c2.421-0.967,4.87-1.415,7.442-1.77c2.385-0.173,4.742-0.346,7.077-0.517c4.669-0.342,9.238-0.675,13.685-0.999
			c8.896-0.649,17.303-1.264,25.065-1.832C101.065,11.761,245.799,3.36,245.799,3.36S101.127,12.431,70.165,15.652
			c-7.741,0.794-16.127,1.652-24.997,2.564c-4.436,0.455-8.992,0.922-13.648,1.4c-2.329,0.239-4.682,0.478-7.058,0.724
			c-2.137,0.374-4.464,0.85-6.539,1.772c-4.236,1.693-8.027,4.658-10.486,8.548c-2.517,3.836-3.602,8.657-3.341,13.253
			c-0.032,1.074,0.28,2.47,0.41,3.702l0.739,3.623c0.51,2.523,1.023,5.058,1.537,7.594c1.02,5.077,2.047,10.173,3.074,15.269
			c1.891,10.215,4.095,20.397,5.7,30.484c1.65,10.079,3.034,20.036,4.502,29.651c0.719,4.81,1.426,9.539,2.12,14.169
			c0.692,4.729,1.228,8.986,2.944,12.818c3.241,7.694,9.887,13.298,17.09,14.852c7.096,1.836,14.22-0.63,20.473-1.388
			c6.247-0.993,11.693-1.857,16.178-2.57C87.842,170.738,92.972,169.952,92.972,169.952z"/>
		<path fill="#134488" d="M361.968,94.946c0,0,0.058,0.587,0.164,1.687c0.092,1.108,0.19,2.805,0.105,4.914
			c-0.105,2.111-0.421,4.735-1.552,7.538c-1.153,2.76-3.249,5.704-6.411,7.649c-3.091,2.013-7.017,3.136-10.967,3.811
			c-3.973,0.798-8.159,1.637-12.493,2.506c-8.665,1.738-17.909,3.595-27.153,5.448c-37.002,7.278-181.895,34.256-181.895,34.256
			s144.793-27.435,181.697-35.168c9.218-1.968,18.437-3.939,27.079-5.785c4.321-0.922,8.497-1.815,12.459-2.662
			c4.005-0.739,7.564-1.842,10.412-3.73c2.874-1.821,4.677-4.455,5.7-6.964c0.993-2.549,1.268-4.989,1.341-6.981
			c0.051-2.013-0.053-3.557-0.158-4.65c-0.12-1.099-0.184-1.684-0.184-1.684L361.968,94.946z"/>
	</g>
</g>
<g>
	<g>
		<path fill="#134488" d="M75.033,111.258c-2.859,3.576-6.434,4.887-11.08,4.887c-2.263,0-4.528-0.717-6.315-1.789
			c-1.311-0.715-3.454-2.741-4.169-3.932v4.767H41.317V30.366h12.628v26.09c0.952-1.311,2.383-2.622,3.693-3.335
			c1.787-1.074,4.052-1.669,6.315-1.669c4.885,0,8.221,1.43,11.08,4.885c4.169,5.124,4.409,13.819,4.409,27.401
			S79.202,106.137,75.033,111.258z M65.025,65.273c-1.072-1.667-2.859-2.622-4.765-2.622c-1.55,0-3.217,0.593-4.289,1.667
			c-1.311,1.311-2.026,3.217-2.026,5.956V97.32c0,2.741,0.715,4.648,2.026,5.956c1.072,1.072,2.739,1.55,4.289,1.55
			c1.906,0,3.693-0.835,4.765-2.5c1.667-2.861,1.787-9.293,1.787-18.586S66.692,68.132,65.025,65.273z"/>
		<path fill="#134488" d="M89.204,44.424V30.485h13.939v13.939H89.204z M89.919,115.191V54.076h12.628v61.115H89.919z"/>
		<path fill="#134488" d="M111.838,115.191v-9.53l18.347-42.055h-16.919v-11.2h31.094v9.413l-18.347,42.055h18.347v11.317
			C144.36,115.191,111.838,115.191,111.838,115.191z"/>
		<path fill="#134488" d="M160.916,111.378c-2.622-2.622-3.93-6.432-3.93-11.317V59.078h-7.743v-3.693h7.743V37.037h4.526v18.347
			h10.96v3.693h-10.96V100.3c0,7.745,4.169,10.843,11.556,10.843v4.05C168.542,115.191,164.253,114.715,160.916,111.378z"/>
		<path fill="#134488" d="M199.991,58.482c-7.624,0-12.154,4.645-12.154,12.152v44.557h-4.524V55.384h4.524v6.315
			c0.361-1.074,1.432-2.741,2.026-3.337c2.622-2.859,6.315-3.93,10.602-3.93v4.052h-0.474V58.482z"/>
		<path fill="#134488" d="M229.772,115.191v-5.598c-0.715,1.665-2.263,3.335-3.098,4.05c-1.906,1.55-4.05,2.504-7.385,2.504
			c-3.337,0-6.432-1.191-8.817-3.576c-2.146-2.263-4.05-6.911-4.05-13.582c0-5.717,1.667-10.602,4.885-13.58
			c2.978-2.739,6.193-3.93,11.08-3.93h7.385V69.803c0-7.387-2.978-11.436-9.174-11.436c-2.5,0-4.526,0.952-5.956,2.383
			c-2.263,2.263-2.978,4.885-2.978,9.411h-4.526c0-4.409,0.833-8.817,4.05-12.032c2.383-2.383,5.241-3.693,9.411-3.693
			c4.526,0,7.745,1.311,9.889,3.454c2.624,2.622,3.813,6.195,3.813,11.795v45.509h-4.528V115.191z M229.772,85.288h-7.624
			c-3.215,0-5.478,0.833-7.624,2.859c-2.263,2.146-3.572,6.195-3.572,10.841c0,7.865,2.739,13.106,9.174,13.106
			c5.956,0,9.647-5.241,9.647-11.915V85.288H229.772z"/>
		<path fill="#134488" d="M271.584,112.449c-2.5,2.504-5.837,3.695-9.889,3.695c-4.05,0-7.624-1.669-9.889-4.172
			c-3.572-3.93-4.526-11.078-4.526-26.686c0-15.606,0.954-22.756,4.526-26.686c2.263-2.502,5.839-4.169,9.889-4.169
			c4.289,0,7.504,1.072,9.889,3.454c3.454,3.454,3.813,7.982,3.813,12.628h-4.406c0-3.454-0.12-6.908-2.622-9.53
			c-1.669-1.787-3.813-2.5-6.552-2.5c-2.861,0-5.124,1.191-6.552,2.739c-3.098,3.454-3.454,9.769-3.454,24.066
			s0.357,20.61,3.454,24.064c1.428,1.55,3.693,2.741,6.552,2.741c2.383,0,4.648-0.715,6.313-2.383
			c2.383-2.38,2.861-5.598,2.861-9.647h4.406C275.394,105.78,274.444,109.471,271.584,112.449z"/>
		<path fill="#134488" d="M315.421,115.191l-14.06-33.477l-8.813,14.178v19.299h-4.53V30.366h4.53v58.615l20.371-33.596h5.124
			L304.221,78.02l16.202,37.17H315.421z"/>
	</g>
</g>
</svg>
