<?xml version="1.0" encoding="utf-8"?>
<!-- Generator: Adobe Illustrator 16.0.4, SVG Export Plug-In . SVG Version: 6.00 Build 0)  -->
<!DOCTYPE svg PUBLIC "-//W3C//DTD SVG 1.1//EN" "http://www.w3.org/Graphics/SVG/1.1/DTD/svg11.dtd">
<svg version="1.1" id="Layer_1" xmlns="http://www.w3.org/2000/svg" xmlns:xlink="http://www.w3.org/1999/xlink" x="0px" y="0px"
	 width="360.156px" height="84.092px" viewBox="2.018 0 360.156 84.092" enable-background="new 2.018 0 360.156 84.092"
	 xml:space="preserve">
<g>
	<path fill="#073E84" d="M12.932,65.684c-0.583,0-2.508,0-3.33,0.062v11.276c0.946,0.125,2.397,0.24,4.154,0.24
		c4.949,0,7.468-2.391,7.468-6.027C21.225,67.298,17.89,65.684,12.932,65.684 M14.048,49.224c-1.584,0-3.101,0.058-4.446,0.115
		v10.501c0.946,0.064,1.874,0.064,3.101,0.064c5.188,0,7.876-2.157,7.876-5.734C20.579,51.187,18.827,49.224,14.048,49.224
		 M13.518,83.586c-2.393,0-6.533-0.115-11.5-0.115V43.25c3.334-0.17,8.46-0.287,13.31-0.287c8.52,0,13.244,3.518,13.244,9.964
		c0,3.996-2.508,7.512-6.237,8.998v0.117c4.662,1.015,7.001,4.96,7.001,9.01C29.336,76.899,25.427,83.586,13.518,83.586"/>
	<path fill="#073E84" d="M48.826,69.685c-8.276,0-10.111,2.441-10.111,4.949c0,2.008,1.348,3.316,3.617,3.316
		c3.865,0,6.495-3.758,6.495-7.511L48.826,69.685L48.826,69.685z M49.439,83.536c0-1.824,0.064-3.703,0.308-5.332l-0.064-0.061
		c-1.472,3.51-5.206,5.947-9.739,5.947c-5.511,0-8.704-3.191-8.704-8.197c0-7.451,7.227-11.408,17.586-11.408v-1.692
		c0-3.243-1.527-4.942-5.946-4.942c-2.755,0-6.43,0.937-9.002,2.443l-0.673-6.708c3.057-1.127,6.983-1.942,10.904-1.942
		c9.806,0,12.563,4.021,12.563,10.841l0.239,20.963L49.439,83.536z"/>
	<path fill="#073E84" d="M299.502,69.685c-8.283,0-10.123,2.441-10.123,4.949c0,2.008,1.355,3.316,3.617,3.316
		c3.855,0,6.506-3.758,6.506-7.511V69.685L299.502,69.685z M300.103,83.536c0-1.824,0.072-3.703,0.313-5.332l-0.063-0.061
		c-1.463,3.51-5.205,5.947-9.742,5.947c-5.517,0-8.696-3.191-8.696-8.197c0-7.451,7.223-11.408,17.588-11.408v-1.692
		c0-3.243-1.539-4.942-5.947-4.942c-2.764,0-6.424,0.937-9.01,2.443l-0.668-6.708c3.053-1.127,6.975-1.942,10.901-1.942
		c9.805,0,12.562,4.021,12.562,10.841l0.241,20.963L300.103,83.536z"/>
	<path fill="#073E84" d="M104.414,84.04c-8.467,0-13.733-4.52-13.733-15.105c0-9.71,4.967-17.159,15.751-17.159
		c2.085,0,4.287,0.31,6.253,0.882l-0.797,6.946c-1.653-0.631-3.56-1.13-5.518-1.13c-4.96,0-7.479,3.771-7.479,9.643
		c0,5.33,2.021,8.97,7.229,8.97c2.094,0,4.354-0.443,6.019-1.316l0.602,6.818C110.653,83.407,107.651,84.04,104.414,84.04"/>
	<path fill="#073E84" d="M129.601,58.474c-3.489,0-6.919,2.768-6.919,9.143c0,6.392,2.267,9.646,6.795,9.646
		c3.862,0,6.802-3.18,6.802-9.511C136.279,61.735,134.201,58.474,129.601,58.474 M128.802,84.092c-8.63,0-14.213-4.57-14.213-15.65
		c0-9.714,6.315-16.741,15.565-16.741c8.635,0,14.215,4.892,14.215,15.611C144.369,77.083,137.94,84.092,128.802,84.092"/>
	<path fill="#073E84" d="M173.788,58.474c-3.499,0-6.938,2.768-6.938,9.143c0,6.392,2.269,9.646,6.812,9.646
		c3.85,0,6.801-3.18,6.801-9.511C180.461,61.735,178.377,58.474,173.788,58.474 M172.979,84.092c-8.637,0-14.217-4.57-14.217-15.65
		c0-9.714,6.311-16.741,15.571-16.741c8.636,0,14.208,4.892,14.208,15.611C188.541,77.083,182.11,84.092,172.979,84.092"/>
	<path fill="#073E84" d="M275.101,48.33c-2.632,0-4.838-2.195-4.838-4.892c0-2.627,2.206-4.818,4.838-4.818
		c2.703,0,4.896,2.126,4.896,4.818C279.998,46.135,277.804,48.33,275.101,48.33 M279.025,83.471h-8.338V52.463
		c3.869-0.5,3.795-0.314,8.338-0.195V83.471z"/>
	<path fill="#073E84" d="M78.627,51.644c-4.958,0-8.518,2.574-10.361,6.271l-0.058-0.064l0.205-5.578
		c-2.74,0.25-5.197,0.815-7.259,1.69v29.509h7.907V68.442c0-5.461,3.132-10.086,7.114-10.086c2.873,0,3.741,1.938,3.741,5.192
		v19.922h7.78V61.607C87.695,56.161,85.488,51.644,78.627,51.644"/>
	<path fill="#073E84" d="M147.782,41.724v41.748h7.576V39.868C152.469,40.146,149.906,40.766,147.782,41.724"/>
	<path fill="#073E84" d="M252.313,77.977c-1.588,0-2.808-0.184-3.858-0.537v-8.353c0-4.946,2.34-9.537,6.188-9.537
		c3.396,0,4.967,2.792,4.967,8.346C259.606,75.231,256.564,77.977,252.313,77.977 M256.806,53.224c-4.08,0-7.3,2.033-8.753,5.245
		h-0.065c0.295-1.545,0.468-4.002,0.468-5.79V39.868c-2.89,0.292-5.439,0.918-7.562,1.892v40.862
		c3.313,0.965,6.69,1.441,10.894,1.441c9.979,0,15.696-6.922,15.696-16.949C267.482,58.356,263.746,53.224,256.806,53.224"/>
	<path fill="#073E84" d="M227.531,51.644c-5.143,0-8.518,3.196-9.928,6.271c-0.736-3.011-3-6.271-8.398-6.271
		c-4.527,0-8.205,2.448-10.043,6.271h-0.068c0.236-1.67,0.353-4.083,0.369-5.622c-2.828,0.278-5.336,0.889-7.422,1.842v29.336h7.865
		V68.561c0-5.819,3.359-10.205,6.977-10.205c3.013,0,3.617,2.306,3.617,5.378v19.738h7.724V68.561
		c0-6.076,3.553-10.205,6.981-10.205c2.875,0,3.625,2.06,3.625,5.378v19.738h7.838V62.04
		C236.668,54.972,233.416,51.644,227.531,51.644"/>
	<path fill="#E30520" d="M361.964,42.129c0.438,1.493,0.297,2.839-1.474,3.56c-2.11,0.864-3.684,1.426-6.287,2.448
		c-1.334,0.505-2.621,1.008-4.096,1.575c-1.43,0.54-2.906,1.125-4.52,1.729c-6.416,2.457-13.707,5.199-22.812,8.561
		c-1.947,0.664-3.932-0.354-4.646-2.443c-1.49-4.77-3.181-9.393-4.824-13.689c-0.701-1.973,0.319-3.761,2.225-4.342
		c4.623-1.298,8.756-2.326,12.771-3.307c3.985-0.985,7.506-1.816,10.864-2.556c6.728-1.532,11.052-2.458,15.646-3.261
		c2.225-0.39,3.021,0.567,3.617,1.989C359.74,35.571,360.888,38.777,361.964,42.129"/>
	<path fill="#FFD300" d="M357.644,16.042c-0.641-1.256-1.199-1.986-3.521-2.03c-6.438-0.133-13.928,0.354-25.229,2.023
		c-5.664,0.829-11.777,2.002-18.432,3.654c-3.347,0.886-6.658,1.722-10.021,2.866c-3.529,1.086-6.766,2.255-10.061,3.53
		c-1.949,0.783-3.113,2.535-2.795,4.035c0.85,3.498,1.725,7.009,2.756,11.06c0.51,1.75,2.52,2.547,4.637,1.739
		c7.369-2.797,15.07-5.211,22.273-7.158c7.233-1.899,13.411-3.325,19.088-4.575c11.239-2.443,17.133-3.229,23.17-4.287
		c1.371-0.246,1.973-1.135,1.364-2.625L357.644,16.042z"/>
	<path fill="#073E84" d="M350.05,2.208c-0.865-1.479-1.711-1.61-2.832-1.782c-4.08-0.65-13.625-0.558-21.619,0.292
		c-4.025,0.34-8.127,0.958-12.617,1.789c-4.459,0.893-8.945,1.911-13.637,3.295c-1.574,0.494-2.531,1.401-1.918,3.212
		c0.832,2.451,1.571,4.531,2.565,7.42c0.67,1.913,2.32,1.929,4.07,1.396c5.24-1.548,10.223-2.74,15.096-3.693
		c4.896-0.98,9.236-1.589,13.39-2.154c8.327-1.001,15.471-1.215,19.487-1.268c0.927-0.021,1.543-0.854,0.857-1.931L350.05,2.208z"/>
</g>
</svg>
