<?xml version="1.0" encoding="UTF-8" standalone="no"?>
<!-- Generator: Adobe Illustrator 16.0.4, SVG Export Plug-In . SVG Version: 6.00 Build 0)  -->

<svg
   xmlns:dc="http://purl.org/dc/elements/1.1/"
   xmlns:cc="http://creativecommons.org/ns#"
   xmlns:rdf="http://www.w3.org/1999/02/22-rdf-syntax-ns#"
   xmlns:svg="http://www.w3.org/2000/svg"
   xmlns="http://www.w3.org/2000/svg"
   xmlns:sodipodi="http://sodipodi.sourceforge.net/DTD/sodipodi-0.dtd"
   xmlns:inkscape="http://www.inkscape.org/namespaces/inkscape"
   version="1.1"
   id="Layer_1"
   x="0px"
   y="0px"
   width="512"
   height="512"
   viewBox="2.018 0 511.99999 511.99999"
   enable-background="new 2.018 0 360.156 84.092"
   xml:space="preserve"
   inkscape:version="0.48.4 r9939"
   sodipodi:docname="logo_bancolombia.svg"
   inkscape:export-filename="/home/thanh/Documents/work/aleph/bancolombia/bancolombia.git/src/img/svg/logo_bancolombia.png"
   inkscape:export-xdpi="90"
   inkscape:export-ydpi="90"><metadata
     id="metadata37"><rdf:RDF><cc:Work
         rdf:about=""><dc:format>image/svg+xml</dc:format><dc:type
           rdf:resource="http://purl.org/dc/dcmitype/StillImage" /><dc:title></dc:title></cc:Work></rdf:RDF></metadata><defs
     id="defs35" /><sodipodi:namedview
     pagecolor="#ffffff"
     bordercolor="#666666"
     borderopacity="1"
     objecttolerance="10"
     gridtolerance="10"
     guidetolerance="10"
     inkscape:pageopacity="0"
     inkscape:pageshadow="2"
     inkscape:window-width="1165"
     inkscape:window-height="813"
     id="namedview33"
     showgrid="false"
     fit-margin-top="0"
     fit-margin-left="0"
     fit-margin-right="0"
     fit-margin-bottom="0"
     inkscape:zoom="0.88572728"
     inkscape:cx="301.00872"
     inkscape:cy="226.93395"
     inkscape:window-x="59"
     inkscape:window-y="34"
     inkscape:window-maximized="0"
     inkscape:current-layer="g3" /><g
     id="g3"
     transform="translate(-285.51493,451.79642)"><path
       d="m 798.0958,-113.29621 c 3.00448,10.24129 2.03728,19.47423 -10.11096,24.419958 -14.47363,5.926642 -25.27054,9.781703 -43.12592,16.792153 -9.15063,3.464067 -17.97886,6.914416 -28.09668,10.803774 -9.80914,3.704151 -19.93382,7.716982 -31.00512,11.860144 -44.0108,16.853889 -94.0237,35.662746 -156.47981,58.7245176 -13.35553,4.5547344 -26.97171,-2.428277 -31.86942,-16.757855 -10.22072,-32.7200036 -21.8202,-64.4316546 -33.09042,-93.9002316 -4.80854,-13.53388 2.18819,-25.79873 15.26247,-29.78413 31.71166,-8.90368 60.06213,-15.95528 87.60318,-22.68449 27.33527,-6.75665 51.48771,-12.45692 74.52204,-17.53298 46.15098,-10.50882 75.81163,-16.86075 107.32436,-22.36896 15.26247,-2.67522 20.72266,3.88936 24.81095,13.64362 8.99972,21.79962 16.87447,43.7913 24.25533,66.78448"
       id="path27"
       inkscape:connector-curvature="0"
       style="fill:#e30520" /><path
       d="m 768.46259,-292.24102 c -4.39696,-8.61558 -8.22459,-13.62304 -24.15244,-13.92486 -44.16171,-0.91232 -95.53966,2.42827 -173.05932,13.87684 -38.85243,5.68656 -80.7848,13.7328 -126.43503,25.06476 -22.95888,6.07755 -45.67082,11.81213 -68.73945,19.65944 -24.20731,7.44946 -46.41164,15.46826 -69.01382,24.21418 -13.36925,5.37102 -21.35375,17.38893 -19.17242,27.67824 5.83061,23.99467 11.83271,48.07851 18.90489,75.8665 3.49837,12.0042 17.28604,17.47125 31.80769,11.92874 50.54795,-19.18613 103.37326,-35.74506 152.78252,-49.10058 49.61505,-13.02626 91.99329,-22.80797 130.93489,-31.38239 77.09437,-16.75786 117.52449,-22.14946 158.93553,-29.40685 9.40443,-1.68744 13.53387,-7.78558 9.35641,-18.00629 l -22.14945,-56.46773 z"
       id="path29"
       inkscape:connector-curvature="0"
       style="fill:#ffd300" /><path
       d="m 716.37125,-387.13589 c -5.9335,-10.14526 -11.73667,-11.04386 -19.42622,-12.2237 -27.98692,-4.4587 -93.46122,-3.82762 -148.29638,2.00299 -27.60965,2.33224 -55.74748,6.57144 -86.54681,12.27171 -30.58669,6.12557 -61.35858,13.10858 -93.54354,22.60219 -10.79692,3.38861 -17.3615,9.61021 -13.1566,22.03284 5.70714,16.81273 10.77634,31.08057 17.59472,50.89778 4.59589,13.1223 15.91413,13.23205 27.91833,9.57592 35.94398,-10.61857 70.12507,-18.79514 103.5516,-25.33228 33.58431,-6.72235 63.35471,-10.89981 91.84924,-14.77545 57.11938,-6.8664 106.12393,-8.33434 133.67184,-8.6979 6.3588,-0.14405 10.58427,-5.85804 5.87863,-13.24577 l -19.49481,-45.10833 z"
       id="path31"
       inkscape:connector-curvature="0"
       style="fill:#073e84" /></g></svg>