<svg xmlns="http://www.w3.org/2000/svg" xmlns:xlink="http://www.w3.org/1999/xlink" preserveAspectRatio="xMidYMid" width="94" height="106" viewBox="0 0 94 106">
  <defs>
    <style>

      .cls-2 {
        fill: #ffffff;
        filter: url(#color-overlay-1);
      }
    </style>

    <filter id="color-overlay-1" filterUnits="userSpaceOnUse">
      <feFlood flood-color="#3698d8" flood-opacity="1"/>
      <feComposite operator="in" in2="SourceGraphic"/>
      <feBlend mode="normal" in2="SourceGraphic" result="colorOverlay"/>
    </filter>
  </defs>
  <path d="M76.885,78.915 C76.885,78.915 76.885,78.823 76.885,78.823 C76.786,78.830 76.690,78.853 76.589,78.853 C70.019,78.853 64.653,75.712 59.463,72.674 C54.853,69.975 50.498,67.426 45.775,67.426 C43.525,67.426 41.701,65.620 41.701,63.392 C41.701,61.165 43.525,59.359 45.775,59.359 C52.727,59.359 58.510,62.744 63.611,65.731 C68.053,68.330 72.248,70.786 76.589,70.786 C76.715,70.786 76.835,70.812 76.959,70.823 C81.972,70.188 85.862,65.948 85.862,60.816 C85.862,56.388 82.997,52.519 78.735,51.187 C78.735,51.187 76.944,50.627 76.944,50.627 C76.944,50.627 76.211,48.914 76.211,48.914 C73.009,41.428 65.633,36.591 57.420,36.591 C51.123,36.591 45.274,39.411 41.373,44.327 C41.373,44.327 39.783,46.331 39.783,46.331 C39.783,46.331 37.272,45.768 37.272,45.768 C36.127,45.512 34.990,45.382 33.891,45.382 C25.471,45.382 18.622,52.162 18.622,60.497 C18.622,68.832 25.471,75.613 33.891,75.613 C36.062,75.613 38.209,75.138 40.192,74.241 C40.192,74.241 40.207,74.288 40.207,74.288 C40.248,74.272 40.282,74.248 40.323,74.234 C46.771,71.969 52.768,75.367 58.568,78.654 C66.790,83.313 75.292,88.132 88.174,82.098 C90.207,81.144 92.636,82.005 93.599,84.018 C94.562,86.032 93.693,88.437 91.659,89.389 C86.114,91.987 81.109,92.988 76.584,92.989 C67.459,92.989 60.278,88.918 54.519,85.654 C49.218,82.651 45.830,80.857 43.048,81.835 C42.918,81.881 42.786,81.899 42.656,81.931 C42.656,81.931 42.667,81.965 42.667,81.965 C39.881,83.087 36.902,83.674 33.891,83.674 C20.981,83.674 10.478,73.276 10.478,60.497 C10.478,53.274 13.835,46.816 19.083,42.563 C18.621,40.934 18.345,39.230 18.345,37.455 C18.345,26.873 27.009,18.296 37.698,18.296 C45.181,18.296 51.660,22.505 54.880,28.657 C55.721,28.584 56.566,28.528 57.420,28.528 C68.306,28.528 78.143,34.604 82.957,44.151 C89.636,47.002 94.005,53.484 94.005,60.816 C94.005,70.421 86.429,78.286 76.885,78.915 ZM61.469,19.630 C59.370,21.707 56.953,20.855 55.714,19.637 C55.713,19.635 55.711,19.635 55.709,19.633 C55.708,19.633 55.707,19.632 55.706,19.630 C55.705,19.630 55.703,19.628 55.702,19.628 C55.701,19.626 55.701,19.624 55.699,19.622 C54.467,18.395 53.607,16.004 55.707,13.926 C58.757,10.905 63.968,10.876 64.335,11.069 C64.339,11.069 64.343,11.069 64.345,11.071 C64.346,11.071 64.347,11.074 64.348,11.074 C64.349,11.077 64.351,11.077 64.352,11.079 C64.355,11.080 64.355,11.084 64.355,11.088 C64.550,11.451 64.519,16.611 61.469,19.630 ZM37.272,12.102 C37.270,12.102 37.269,12.102 37.267,12.102 C37.265,12.102 37.264,12.102 37.262,12.102 C37.260,12.102 37.258,12.102 37.257,12.102 C37.255,12.102 37.253,12.102 37.252,12.102 C35.505,12.096 33.187,11.007 33.187,8.069 C33.187,3.797 36.851,0.129 37.247,0.008 C37.250,0.006 37.253,0.002 37.257,0.002 C37.258,0.002 37.260,0.004 37.262,0.004 C37.263,0.004 37.266,0.002 37.267,0.002 C37.270,0.002 37.273,0.006 37.276,0.008 C37.673,0.129 41.336,3.797 41.336,8.069 C41.336,11.007 39.019,12.096 37.272,12.102 ZM19.695,19.626 C19.693,19.628 19.692,19.630 19.691,19.632 C19.690,19.632 19.689,19.633 19.688,19.633 C19.686,19.635 19.684,19.635 19.683,19.637 C18.444,20.855 16.027,21.709 13.928,19.630 C10.877,16.611 10.847,11.451 11.041,11.088 C11.042,11.084 11.042,11.080 11.045,11.079 C11.045,11.079 11.048,11.077 11.048,11.074 C11.050,11.074 11.051,11.073 11.052,11.071 C11.054,11.069 11.058,11.069 11.062,11.069 C11.428,10.876 16.640,10.907 19.690,13.926 C21.790,16.004 20.929,18.395 19.698,19.622 C19.696,19.624 19.696,19.626 19.695,19.626 ZM12.231,37.445 C12.231,37.447 12.232,37.449 12.232,37.450 C12.232,37.452 12.232,37.455 12.232,37.456 C12.232,37.456 12.232,37.458 12.232,37.460 C12.232,37.462 12.231,37.464 12.231,37.466 C12.225,39.195 11.126,41.490 8.157,41.490 C3.843,41.490 0.136,37.862 0.014,37.470 C0.012,37.466 0.009,37.464 0.009,37.460 C0.009,37.460 0.010,37.456 0.010,37.456 C0.010,37.455 0.009,37.452 0.009,37.450 C0.009,37.447 0.012,37.445 0.014,37.441 C0.136,37.049 3.843,33.423 8.157,33.423 C11.126,33.423 12.225,35.715 12.231,37.445 ZM37.071,88.314 C48.993,86.687 55.108,90.999 62.851,96.456 C63.852,97.161 64.897,97.898 66.006,98.658 C67.856,99.926 68.316,102.439 67.035,104.269 C66.244,105.400 64.974,106.007 63.683,106.007 C62.882,106.007 62.073,105.774 61.366,105.289 C60.227,104.508 59.154,103.752 58.126,103.028 C50.887,97.927 46.900,95.113 38.182,96.305 C35.948,96.603 33.896,95.066 33.590,92.860 C33.283,90.653 34.842,88.618 37.071,88.314 Z" id="path-1" class="cls-2" fill-rule="evenodd"/>
</svg>
